HIERARCHY
ROOT Hips
{
	OFFSET -10.056300 7.733760 -472.550000
	CHANNELS 6 Xposition Yposition Zposition Zrotation Yrotation Xrotation 
	JOINT Spine
	{
		OFFSET 0.000000 0.000000 0.000000
		CHANNELS 3 Zrotation Yrotation Xrotation
		JOINT Spine1
		{
			OFFSET 19.000000 0.000000 0.000000
			CHANNELS 3 Zrotation Yrotation Xrotation
			JOINT Neck
			{
				OFFSET 22.500000 0.600000 0.000000
				CHANNELS 3 Zrotation Yrotation Xrotation
				JOINT Head
				{
					OFFSET 14.000000 0.030878 0.000000
					CHANNELS 3 Zrotation Yrotation Xrotation
					End Site
					{
						OFFSET 17.000000 0.000000 0.000000
					}
				}
			}
			JOINT LeftShoulder
			{
				OFFSET 19.800000 3.700000 4.300000
				CHANNELS 3 Zrotation Yrotation Xrotation
				JOINT LeftArm
				{
					OFFSET 8.000000 0.000000 0.000000
					CHANNELS 3 Zrotation Yrotation Xrotation
					JOINT LeftForeArm
					{
						OFFSET 15.200000 0.000000 0.000000
						CHANNELS 3 Zrotation Yrotation Xrotation
						JOINT LeftHand
						{
							OFFSET 17.800000 0.000000 0.000000
							CHANNELS 3 Zrotation Yrotation Xrotation
							End Site
							{
								OFFSET 7.200000 0.000000 0.000000
							}
						}
					}
				}
			}
			JOINT RightShoulder
			{
				OFFSET 19.800000 3.700000 -4.300000
				CHANNELS 3 Zrotation Yrotation Xrotation
				JOINT RightArm
				{
					OFFSET 8.000000 0.000000 0.151654
					CHANNELS 3 Zrotation Yrotation Xrotation
					JOINT RightForeArm
					{
						OFFSET 15.200000 0.000000 0.000000
						CHANNELS 3 Zrotation Yrotation Xrotation
						JOINT RightHand
						{
							OFFSET 17.800000 0.000000 0.000000
							CHANNELS 3 Zrotation Yrotation Xrotation
							End Site
							{
								OFFSET 7.200000 0.000000 0.000000
							}
						}
					}
				}
			}
		}
	}
	JOINT LeftUpLeg
	{
		OFFSET 5.984250 -7.666000 4.788790
		CHANNELS 3 Zrotation Yrotation Xrotation
		JOINT LeftLeg
		{
			OFFSET 16.000000 0.000000 0.000000
			CHANNELS 3 Zrotation Yrotation Xrotation
			JOINT LeftFoot
			{
				OFFSET 18.000000 0.000000 0.000000
				CHANNELS 3 Zrotation Yrotation Xrotation
				End Site
				{
					OFFSET 0.000000 -10.800000 0.000000
				}
			}
		}
	}
	JOINT RightUpLeg
	{
		OFFSET 5.984250 -7.665980 -4.788790
		CHANNELS 3 Zrotation Yrotation Xrotation
		JOINT RightLeg
		{
			OFFSET 16.000000 0.000000 0.000000
			CHANNELS 3 Zrotation Yrotation Xrotation
			JOINT RightFoot
			{
				OFFSET 18.000000 0.000000 0.000000
				CHANNELS 3 Zrotation Yrotation Xrotation
				End Site
				{
					OFFSET 0.000000 -10.800000 0.000000
				}
			}
		}
	}
	JOINT Tail
	{
		OFFSET 6.836960 -0.722574 0.000000
		CHANNELS 3 Zrotation Yrotation Xrotation
		JOINT Tail1
		{
			OFFSET 12.000000 0.000000 0.000000
			CHANNELS 3 Zrotation Yrotation Xrotation
			End Site
			{
				OFFSET 12.000000 0.000000 0.000000
			}
		}
	}
}
MOTION
Frames: 15
Frame Time: 0.033333
-1.343877 0.272518 -0.883884 -107.230301 -41.414612 122.428268 -161.422440 6.511147 -5.185397 11.574018 -1.778919 0.082259 -8.450500 -22.758984 64.641029 53.782585 20.509541 -53.265697 37.083782 -31.869213 -77.061180 -90.423256 -56.258892 -174.928146 -161.827179 15.726988 -139.766495 114.444336 -42.905663 -45.623768 76.021629 58.881126 -75.267151 78.120537 -68.635803 60.973732 131.258896 -24.147585 -99.776810 -18.703283 77.084557 -35.438015 -125.375275 -16.991058 -18.508774 -143.969284 -52.893169 85.992104 -163.623627 7.928050 -59.552124 -139.684021 1.220758 112.632553 -113.980637 9.392676 80.314850 -96.378334 15.521555 -13.293534 -0.026007 9.271162 -106.432281 18.478954 12.601068 -63.486584 
-2.876973 -0.220773 -1.637271 -107.007538 -39.705486 125.110466 -161.089737 7.591399 -5.163877 13.743260 -7.983920 0.674036 -6.701157 -26.501747 65.132477 53.649525 19.106949 -54.347095 40.524727 -32.884857 -80.946983 -84.413200 -54.129353 -177.985825 -162.486145 23.583349 -136.038651 97.272697 -42.242073 -33.802601 81.385033 57.901306 -72.367790 79.450302 -68.703156 60.281075 129.286270 -28.991026 -102.534355 -25.438423 82.177292 -44.158218 -125.066017 -18.684095 -22.822290 -148.571686 -51.986916 92.828339 -164.577667 7.007764 -58.591103 -140.822327 -1.645260 114.138115 -117.184509 11.821298 77.253822 -98.158173 13.945238 -12.694880 6.651898 10.233657 -106.129936 18.620275 11.227534 -65.167625 
-4.852407 -1.074339 -2.131789 -107.213791 -36.928806 129.581238 -161.084091 8.831604 -4.828468 18.111526 -16.940487 0.845522 -7.233182 -28.800129 67.136559 53.857101 19.950891 -55.301754 45.426159 -34.653446 -85.462639 -78.003113 -50.893528 179.215759 -159.497528 37.476490 -128.162155 77.966530 -34.436127 -19.058567 83.931824 57.354576 -71.315453 79.418091 -69.023170 61.494934 127.082588 -32.195312 -103.126808 -39.345909 82.580444 -57.335186 -125.129974 -20.105995 -26.759254 -154.092590 -50.623775 99.937599 -165.811844 6.156038 -57.803982 -141.926727 -6.157008 117.124214 -118.815163 12.333208 72.807076 -98.749535 11.753393 -11.468394 12.940249 10.631824 -106.315025 19.137329 9.742951 -65.103172 
-7.087996 -2.044703 -1.979952 -107.272346 -33.756966 133.617569 -161.933868 9.978911 -4.327746 24.864414 -27.418392 -0.599861 -10.465747 -28.362692 70.316147 54.059822 22.637049 -55.863602 50.286552 -36.857861 -89.416580 -72.351181 -47.304070 177.455765 -151.676193 50.541500 -116.883545 67.949036 -26.718000 -11.787558 81.659332 57.082970 -73.609024 78.469513 -69.849495 63.972122 125.762177 -33.497665 -102.462746 -36.066360 78.693459 -52.116123 -125.790306 -20.880388 -29.510445 -158.413483 -48.995289 105.101944 -167.222290 5.508213 -57.483189 -142.869431 -10.908554 119.654457 -118.635582 11.798697 67.985825 -97.715210 9.235557 -9.743115 18.024452 9.913774 -107.085587 20.123280 8.395407 -61.402523 
-9.358866 -2.944643 -1.173138 -107.046280 -30.771141 135.750885 -163.847748 10.712029 -3.892872 33.347275 -37.601185 -4.225848 -15.114864 -26.277771 73.911369 54.267006 25.013752 -56.160526 53.645626 -38.985825 -91.850624 -68.814095 -44.467255 176.927109 -143.910309 56.655281 -107.456413 65.918381 -26.456530 -11.553692 75.030876 56.316063 -79.395210 76.667618 -71.173866 67.196617 125.579987 -33.487137 -101.954872 -31.618515 70.531685 -43.917122 -127.249748 -20.655113 -30.949686 -160.184906 -47.705494 106.936913 -168.713638 5.076407 -57.848640 -143.666000 -13.947015 119.619202 -116.967171 10.938179 63.153667 -95.856636 6.761251 -8.025311 21.275320 7.401079 -108.428459 21.240650 7.301289 -53.083008 
-11.289271 -4.046217 -0.167477 -108.176285 -28.147305 134.969955 -166.873505 10.602177 -3.777653 41.643940 -45.356514 -8.939404 -19.237211 -23.638340 76.345177 54.654636 25.424301 -56.174015 55.597404 -40.597454 -92.787048 -67.369759 -42.385582 177.059006 -145.598984 54.950562 -108.341797 68.915543 -32.820408 -16.024590 65.597076 54.716194 -87.988853 74.852943 -72.853218 70.044708 126.636620 -32.345440 -102.328850 -30.436598 60.627182 -38.045345 -129.280502 -19.840092 -30.911949 -159.786041 -46.683407 105.476151 -170.190506 4.794228 -58.765484 -145.034119 -13.545017 114.974670 -114.827621 10.421282 58.849178 -93.627388 4.719356 -6.474163 22.310925 1.964485 -110.594719 22.291861 6.379768 -39.766006 
-12.650529 -4.920120 0.975853 -112.632431 -25.905838 133.701920 -170.167084 9.442455 -4.042356 46.332561 -50.548103 -12.327116 -21.539083 -21.689335 77.155128 55.345127 24.176523 -55.856537 57.633797 -41.321545 -93.396652 -67.164238 -41.046314 177.944305 -151.996597 48.506084 -113.501511 74.484161 -40.094398 -22.597675 57.396679 52.623020 -95.804619 74.259529 -74.317909 71.001823 127.507233 -31.086832 -102.762741 -26.958828 52.166538 -32.422543 -131.339767 -19.048611 -30.013735 -158.564957 -45.690895 102.279060 -171.760117 4.486958 -60.242554 -147.925156 -10.303807 106.507469 -113.184402 10.346755 55.483696 -91.010658 3.398292 -5.331326 20.943903 -7.119984 -113.137711 23.035315 5.191255 -21.850924 
-13.727413 -5.669531 1.603156 -119.348358 -24.077692 134.827713 -172.736542 7.422701 -4.468166 46.157093 -54.067219 -13.354754 -21.641708 -21.289534 76.745125 56.154606 20.976810 -55.899765 60.284737 -40.497528 -94.348831 -68.294495 -40.317333 179.783951 -155.957245 42.506947 -116.088676 80.109550 -45.397934 -28.402897 53.837730 51.008160 -99.875938 75.060051 -75.134422 70.210678 127.363747 -29.933691 -103.200417 -22.101656 45.903320 -28.025366 -132.761185 -18.373823 -29.024895 -159.478638 -44.119003 101.685051 -173.486420 3.957245 -61.927273 -152.488037 -6.595882 97.521172 -112.892212 10.668061 53.367138 -89.474083 2.702704 -4.414351 17.974991 -20.409670 -115.951828 22.779417 3.303968 -0.595921 
-14.883275 -6.253484 1.916072 -126.429146 -21.962267 139.180817 -174.213562 4.972767 -4.910362 43.682793 -56.549786 -13.319243 -19.555365 -22.471634 75.689880 56.455647 16.493645 -55.691166 63.242500 -38.022377 -95.209099 -69.828041 -40.331863 -178.040131 -156.781906 40.142406 -115.020050 82.705284 -46.681698 -30.413198 53.836533 50.187943 -100.735786 74.820160 -75.083504 70.218941 126.186211 -27.776289 -103.411728 -21.192545 41.744087 -26.225918 -133.235443 -17.756859 -28.356152 -163.185791 -41.944077 104.572807 -175.067993 3.262100 -63.410652 -158.452103 -3.852652 90.805191 -112.784027 10.652215 52.414375 -89.672127 2.191394 -3.327986 14.574037 -36.993172 -119.173447 21.175747 1.598728 20.326721 
-16.265278 -6.344975 2.518327 -132.596878 -16.524792 146.965332 -174.711700 2.460454 -5.280043 41.840416 -59.089085 -13.905405 -16.434143 -24.732796 74.634766 56.123192 11.870646 -54.685608 65.508690 -34.927044 -95.166603 -71.644058 -41.139172 -175.580353 -155.814316 40.207687 -110.536278 81.266266 -43.471939 -27.461426 55.242207 49.694065 -99.767525 71.945648 -74.425308 72.657043 124.490044 -23.935711 -102.646683 -25.044580 39.345062 -26.680141 -132.943588 -17.205477 -27.818293 -168.384323 -39.789310 109.292610 -176.288971 2.602906 -64.350060 -165.236130 -1.807497 87.048828 -112.040634 10.159657 52.295559 -90.745117 1.724075 -2.389962 11.537025 -53.290302 -123.272873 19.156816 0.951422 36.685303 
-17.589424 -6.169067 3.330894 -136.990158 -8.527493 154.975159 -174.556442 0.189474 -5.337853 41.837200 -61.929001 -15.776199 -14.033183 -27.128988 73.877022 55.052383 7.387424 -52.608047 65.886932 -32.185028 -93.516800 -74.303978 -43.012169 -172.400558 -154.515884 40.612965 -103.931107 78.601768 -35.833317 -22.104977 56.081959 49.040321 -98.755714 67.977303 -73.321785 76.176033 123.528076 -17.983376 -101.150307 -29.117958 38.771759 -27.589334 -132.198044 -16.684681 -26.962694 -173.275558 -38.521610 113.740898 -177.107147 2.093308 -64.746567 -172.025330 0.150996 85.426933 -110.311668 9.361251 53.489010 -91.394104 1.629524 -1.891910 7.676557 -66.206566 -127.194382 17.936756 1.624685 45.741493 
-19.098717 -5.580662 4.883306 -139.294571 -1.890609 160.692200 -173.898636 -1.643105 -5.130527 43.386211 -64.652641 -18.425211 -13.337674 -28.918795 73.454163 53.349056 3.696029 -49.301182 63.964863 -29.699375 -90.126274 -78.197639 -45.744915 -168.130463 -153.656799 40.776779 -97.509155 76.606346 -27.096977 -17.033518 56.467354 48.351021 -97.519302 64.035805 -71.997421 79.627853 124.395042 -10.381416 -100.013802 -31.958439 39.621548 -28.372890 -131.301239 -16.017950 -25.572124 -176.427078 -39.012348 116.804848 -177.295837 1.947502 -64.379074 -177.969009 3.056781 86.406593 -107.743904 8.203693 55.447357 -91.495125 2.264403 -2.154302 -2.014474 -74.762123 -126.101280 17.644163 3.391360 46.955688 
-21.185337 -4.961426 7.096775 -139.699249 3.028868 165.565216 -173.080719 -3.008428 -4.369133 46.513691 -66.133858 -21.563530 -15.815104 -28.662374 74.039612 51.408752 0.579983 -45.770958 60.252659 -27.675108 -86.006386 -84.106415 -48.499813 -162.338211 -154.969818 40.188427 -93.887154 74.416611 -18.278410 -12.373389 56.992416 47.622063 -95.932854 61.859669 -70.826248 81.228836 127.032127 -2.455374 -99.469330 -30.756725 42.300148 -28.511559 -130.457794 -14.910840 -24.023964 -176.850052 -41.640350 117.646545 -176.988068 2.050653 -63.270054 178.990128 6.215487 89.225914 -105.879776 7.889116 58.806786 -91.451172 3.875044 -3.220478 -25.820438 -77.269997 -111.740021 18.014721 6.417804 39.873074 
-23.719582 -4.152699 9.405057 -139.194199 4.031691 167.894485 -172.223145 -3.768693 -3.039223 48.476566 -65.522911 -22.473646 -22.084303 -25.942608 75.500473 49.102959 -3.732161 -42.372845 55.512104 -25.916235 -81.699402 -90.714043 -50.818600 -156.306534 -159.035858 39.441811 -94.556046 72.183167 -9.244491 -7.966228 57.639267 47.239792 -94.496445 63.268673 -69.941780 79.002747 131.332748 4.728456 -99.502609 -25.260382 48.105652 -28.291468 -129.965363 -13.228522 -21.999395 -174.680084 -45.955532 116.277267 -176.331329 2.275421 -62.058788 -179.946701 8.853094 93.925980 -105.582275 8.199384 64.023598 -91.494255 6.476797 -5.046256 -45.642494 -72.348846 -101.758377 18.167818 10.546573 25.149733 
-26.271193 -3.247693 11.656288 -138.028000 1.713969 168.332031 -171.107025 -3.773578 -1.297507 45.834240 -62.306015 -18.276775 -30.023827 -22.226784 77.467331 46.821110 -8.588501 -39.474110 51.095348 -24.780602 -78.065849 -96.837845 -52.012955 -151.582947 -164.658203 38.910667 -98.813499 69.608658 -0.527573 -3.881800 59.402493 47.557766 -92.787598 69.508255 -69.115097 71.591881 136.038452 10.112231 -100.010803 -16.913181 57.711544 -27.262447 -129.737045 -11.446619 -19.944921 -171.281006 -50.706234 114.058281 -175.486435 2.357885 -60.718178 -173.990952 9.103331 100.481781 -108.237717 9.955411 71.233589 -92.202126 10.084746 -7.738870 -51.271637 -61.069038 -104.746994 16.824429 15.019797 3.585074 
